HIERARCHY
ROOT Joint1
{
	OFFSET 0.000000 0.000000 0.000000
	CHANNELS 6 Xposition Yposition Zposition Xrotation Yrotation Zrotation
	JOINT Joint2
	{
		OFFSET -0.000000 0.000000 1.456275
		CHANNELS 6 Xposition Yposition Zposition Xrotation Yrotation Zrotation
		JOINT Joint3
		{
			OFFSET -0.000000 0.000002 1.471446
			CHANNELS 6 Xposition Yposition Zposition Xrotation Yrotation Zrotation
			JOINT Joint4
			{
				OFFSET 0.625745 0.000000 0.917755
				CHANNELS 6 Xposition Yposition Zposition Xrotation Yrotation Zrotation
				JOINT Joint5
				{
					OFFSET -0.629534 0.000001 0.940221
					CHANNELS 6 Xposition Yposition Zposition Xrotation Yrotation Zrotation
					JOINT Joint6
					{
						OFFSET -0.000001 0.113772 1.960660
						CHANNELS 6 Xposition Yposition Zposition Xrotation Yrotation Zrotation
						JOINT Joint7
						{
							OFFSET -0.669733 -0.113771 0.388340
							CHANNELS 6 Xposition Yposition Zposition Xrotation Yrotation Zrotation
							End Site
							{
								OFFSET 0.005509 0.005509 0.438980
							}
						}
					}
				}
			}
		}
	}
}
MOTION
Frames: 14
Frame Time: 0.041667
0.000000 0.000000 0.000000 -0.000000 1.019410 -133.389510 -0.000000 0.000000 1.456275 0.000001 65.453081 -0.000004 -0.000000 0.000002 1.471446 -0.000006 -1.133454 88.388044 0.625745 0.000001 0.917755 0.000002 63.549173 0.000002 -0.629534 0.000001 0.940221 0.000000 1.709740 2.511750 -0.000001 0.113772 1.960660 -88.303882 166.883938 -0.000001 -0.669733 -0.113771 0.388340 -0.385620 1.584368 -26.662415 
0.000000 0.000000 0.000000 -0.000000 1.019410 -133.326181 -0.000000 -0.000000 1.456275 0.000001 65.400639 -0.000003 -0.000000 0.000002 1.471445 -0.000008 -1.133454 88.346059 0.625745 0.000000 0.917755 0.000001 63.583112 0.000002 -0.629534 0.000001 0.940221 0.000000 1.709740 2.510551 -0.000001 0.113772 1.960660 -88.303882 166.847410 0.000002 -0.669733 -0.113771 0.388340 -0.384328 1.584796 -26.585721 
0.000000 0.000000 0.000000 -0.000000 1.019410 -133.211051 -0.000000 0.000000 1.456275 0.000002 65.305317 0.000004 -0.000000 0.000002 1.471446 -0.000007 -1.133458 88.269738 0.625745 0.000001 0.917755 -0.000001 63.644809 0.000003 -0.629534 0.000001 0.940221 -0.000001 1.709737 2.508370 -0.000001 0.113772 1.960660 -88.303882 166.781034 -0.000002 -0.669733 -0.113771 0.388340 -0.381978 1.585580 -26.446300 
0.000000 0.000000 0.000000 -0.000000 1.019410 -133.036280 -0.000000 0.000000 1.456275 -0.000003 65.160626 -0.000000 -0.000000 0.000002 1.471446 0.000000 -1.133456 88.153891 0.625745 0.000000 0.917756 0.000001 63.738451 0.000006 -0.629534 0.000001 0.940221 0.000001 1.709738 2.505065 -0.000001 0.113772 1.960660 -88.303882 166.680276 0.000000 -0.669733 -0.113771 0.388341 -0.378418 1.586783 -26.234675 
0.000000 0.000000 0.000000 -0.000000 1.019410 -132.794040 -0.000000 0.000000 1.456275 -0.000006 64.960078 -0.000001 -0.000000 0.000002 1.471446 -0.000005 -1.133455 87.993334 0.625744 0.000000 0.917755 0.000001 63.868238 0.000002 -0.629534 0.000001 0.940221 -0.000002 1.709737 2.500476 -0.000001 0.113772 1.960660 -88.303882 166.540612 0.000001 -0.669733 -0.113771 0.388340 -0.373487 1.588473 -25.941354 
0.000000 0.000000 0.000000 -0.000000 1.019410 -132.476505 -0.000000 0.000000 1.456275 0.000008 64.697191 -0.000001 -0.000000 0.000002 1.471446 -0.000005 -1.133453 87.782855 0.625745 0.000000 0.917755 0.000001 64.038385 -0.000002 -0.629534 0.000001 0.940221 -0.000000 1.709736 2.494466 -0.000001 0.113772 1.960660 -88.303882 166.357535 0.000000 -0.669733 -0.113770 0.388341 -0.367039 1.590725 -25.556852 
0.000000 0.000000 0.000000 -0.000000 1.019410 -132.075846 -0.000000 0.000000 1.456275 -0.000003 64.365490 -0.000001 -0.000000 0.000002 1.471446 -0.000005 -1.133455 87.517277 0.625745 0.000000 0.917755 -0.000003 64.253072 0.000003 -0.629533 0.000001 0.940221 -0.000000 1.709741 2.486880 -0.000001 0.113772 1.960660 -88.303882 166.126538 0.000001 -0.669733 -0.113771 0.388340 -0.358925 1.593624 -25.071688 
0.000000 0.000000 0.000000 -0.000000 1.019410 -131.584209 -0.000000 0.000000 1.456275 -0.000007 63.958458 0.000003 -0.000000 0.000002 1.471446 -0.000007 -1.133452 87.191395 0.625745 0.000000 0.917755 0.000001 64.516505 0.000004 -0.629534 0.000001 0.940221 -0.000000 1.709741 2.477568 -0.000001 0.113772 1.960661 -88.303882 165.843086 0.000001 -0.669733 -0.113772 0.388339 -0.349004 1.597280 -24.476379 
0.000000 0.000000 0.000000 -0.000000 1.019410 -130.993780 -0.000000 0.000000 1.456275 0.000002 63.469642 0.000002 -0.000000 0.000002 1.471446 -0.000010 -1.133452 86.800032 0.625745 0.000000 0.917755 0.000001 64.832866 0.000002 -0.629534 0.000001 0.940220 -0.000001 1.709739 2.466389 -0.000001 0.113772 1.960661 -88.303882 165.502683 -0.000001 -0.669733 -0.113772 0.388340 -0.337139 1.601803 -23.761422 
0.000000 0.000000 0.000000 -0.000000 1.019410 -130.296718 -0.000000 0.000000 1.456275 0.000004 62.892539 0.000004 -0.000000 0.000002 1.471445 -0.000004 -1.133457 86.337983 0.625745 0.000000 0.917755 0.000001 65.206368 0.000002 -0.629534 0.000001 0.940221 -0.000000 1.709738 2.453191 -0.000001 0.113772 1.960660 -88.303882 165.100794 0.000002 -0.669733 -0.113771 0.388340 -0.323204 1.607335 -22.917353 
0.000000 0.000000 0.000000 -0.000000 1.019410 -129.485196 -0.000000 -0.000000 1.456275 0.000001 62.220681 0.000005 -0.000000 0.000002 1.471446 -0.000004 -1.133454 85.800065 0.625745 0.000000 0.917755 -0.000000 65.641192 0.000004 -0.629533 0.000001 0.940221 -0.000003 1.709741 2.437823 -0.000001 0.113772 1.960661 -88.303882 164.632913 -0.000002 -0.669733 -0.113771 0.388341 -0.307087 1.614032 -21.934673 
0.000000 0.000000 0.000000 -0.000000 1.019410 -128.561113 -0.000000 0.000000 1.456275 0.000005 61.455638 0.000003 -0.000000 0.000002 1.471446 -0.000006 -1.133457 85.187540 0.625745 0.000000 0.917755 0.000001 66.136339 0.000001 -0.629534 0.000001 0.940221 0.000002 1.709737 2.420333 -0.000001 0.113772 1.960660 -88.303882 164.100131 -0.000000 -0.669733 -0.113771 0.388340 -0.288877 1.621995 -20.815710 
0.000000 0.000000 0.000000 -0.000000 1.019410 -127.565394 -0.000000 0.000000 1.456275 -0.000007 60.631261 0.000002 -0.000000 0.000002 1.471446 -0.000005 -1.133454 84.527512 0.625744 0.000000 0.917755 0.000001 66.669873 0.000003 -0.629534 0.000001 0.940221 -0.000001 1.709737 2.401479 -0.000000 0.113772 1.960660 -88.303882 163.526053 -0.000002 -0.669733 -0.113771 0.388340 -0.269434 1.630971 -19.609972 
0.000000 0.000000 0.000000 -0.000000 1.019410 -126.548652 -0.000000 0.000000 1.456275 0.000006 59.789488 0.000003 -0.000000 0.000002 1.471446 -0.000005 -1.133453 83.853563 0.625745 0.000001 0.917755 -0.000004 67.214669 0.000001 -0.629534 0.000001 0.940220 -0.000001 1.709739 2.382227 -0.000000 0.113772 1.960661 -88.303882 162.939845 -0.000000 -0.669733 -0.113771 0.388340 -0.249779 1.640555 -18.378774 
